<?xml version="1.0" encoding="utf-8"?>
<!-- Generator: Adobe Illustrator 26.0.1, SVG Export Plug-In . SVG Version: 6.00 Build 0)  -->
<svg version="1.1" id="Capa_1" xmlns="http://www.w3.org/2000/svg" xmlns:xlink="http://www.w3.org/1999/xlink" x="0px" y="0px"
	 viewBox="0 0 338.4 91.4" style="enable-background:new 0 0 338.4 91.4;" xml:space="preserve">
<style type="text/css">
	.st0{fill:#FFFFFF;}
</style>
<g>
	<path class="st0" d="M90,15c0-1.1-0.1-2.3-1.5-3.1h16.6c8.3,0,11.5,4.6,11.7,8.4c0.2,5.2-3.6,8.3-7.7,9.6
		c6.6-0.5,14.6,5.6,14.3,13.4c-0.5,12.2-11.5,14.7-24.6,14.4L90,57.5V15z M115.8,43.1c0.7-11.7-8.8-12.2-14.5-11.2
		c6.8-2.6,8.6-6.2,8.2-9.8c-0.5-5.6-4.2-8-8.9-6.8v40.1C109.2,56.3,115.1,53.7,115.8,43.1"/>
	<path id="XMLID_11_" class="st0" d="M138,40.1c0,4.1,0.9,7.1,3.1,9.8c1.6,2.1,4.4,4.1,7.6,4c5.3-0.1,11.5-4.6,11.5-14.2V11.9h3.7
		v27.9c0,12.5-7.8,18-14.7,18.4c-6.9,0.4-11.8-1.4-15.7-4.7c-3.8-3.3-5.9-7.4-5.9-13.4V11.9H138V40.1z"/>
	<path id="XMLID_10_" class="st0" d="M170.1,57.5V11.9h28.5l2,4.7c-1.9-1.1-4.6-1.5-7.8-1.5h-12.2v16.2h12.8c2.2,0,3.5-0.1,4.6-1.6
		v6.7c-1-1-2.2-1.8-4.6-1.8h-12.8v19.3h12.9c3.8,0,5.5-1.1,11.3-4.1l-3.6,7.6h-31.1h31h-31V57.5z"/>
	<path id="XMLID_9_" class="st0" d="M213.6,19.7c-0.1-0.2-0.4-1-0.4-1.1v39h-3.7V15.1c0-1.5,0.1-2.1-1.7-3.1h11.6l19.4,22.7
		L259,11.9h6.4v45.5H255V20.7c-1.5,2.1,0.4-0.4-20.2,23.7c-2.1-2.6-3.8-4.6-10.3-11.9C223.1,31,214.6,20.9,213.6,19.7"/>
	<path id="XMLID_8_" class="st0" d="M273.9,57.5V11.9h28.5l2,4.7c-1.9-1.1-4.6-1.5-7.8-1.5h-12.2v16.2h12.8c2.2,0,3.5-0.1,4.6-1.6
		v6.7c-1-1-2.2-1.8-4.6-1.8h-12.8v19.3h12.9c3.8,0,5.5-1.1,11.3-4.1l-3.6,7.6h-31.1h31h-31V57.5z"/>
	<path id="XMLID_7_" class="st0" d="M311.9,55.2l2-6.7c1.5,3.9,3.4,6.8,7,7.5s4.2,0.1,5.4-1.4c0.5-0.7,0.7-3.2,0.4-5.9
		c-0.3-2-0.7-3.3-1.6-5.9c-0.5-1.3-2.1-4.5-2.8-5.9c-2.8-5.2-4-8.3-4.9-12.5c-0.3-1.6,0-3.5,1.2-6.1c1.8-2.8,3.3-4.1,6.4-5.4
		c2.6-1.1,7.2-1.5,10.9-1.8l2.6,5.2c-2.6-1.6-5.5-2.3-7.9-2.2c-2.8,0.1-4.8,2.1-4.2,4.1c0,3.1,0.5,4,1.4,6.9
		c0.4,1.5,1.4,3.8,3.1,7.2c3.1,5.8,3.2,6.5,4.3,9.7c0.4,1.2,0.6,2.9,0.6,5.1c-0.5,4.2-2.1,7-5.2,9.4c-2,1.5-4.9,2.2-9.7,1.8
		C317.4,57.9,315.2,56.9,311.9,55.2"/>
	<path class="st0" d="M69.1,33.9C68.8,14.9,53-0.3,33.9,0C26,0.1,18.8,2.9,13.1,7.4c-1.4,1.1-2.6,2.3-3.8,3.5
		c-0.2,0.2-0.4,0.4-0.5,0.6c-1.1,1.2-2.1,2.5-3,3.9C2,21.1-0.1,27.9,0,35.2s2.5,14,6.5,19.5c1,1.3,2,2.6,3.1,3.7
		c0.2,0.2,0.4,0.4,0.6,0.6c1.2,1.2,2.5,2.4,3.9,3.4c5.9,4.3,13.2,6.9,21.1,6.7C54.3,68.8,69.5,53,69.1,33.9 M14.7,12.6
		C19.8,7.9,26.6,5.1,34,4.9c15-0.3,27.5,10.6,29.8,24.9l-49.1-17l-0.3-0.1C14.6,12.7,14.6,12.6,14.7,12.6 M20.7,32.1l-3.9-12.9
		l35.6,12.3L20.7,32.1z M52.3,36.9l-35,13.6l3.5-13L52.3,36.9z M11.1,53.1v0.2V53.1c-0.3-0.4-0.6-0.7-0.8-1.1
		c-3.4-4.8-5.5-10.6-5.6-16.9s1.7-12.2,5-17.2c0.3-0.4,0.5-0.8,0.8-1.2v-0.2l0.1,0.2l5.4,18L11.1,53.1z M35.1,64.2
		c-7.5,0.1-14.3-2.5-19.6-7c-0.1-0.1-0.1-0.1-0.2-0.2l0.3-0.1L64,38.2C62.3,52.6,50.1,63.9,35.1,64.2"/>
</g>
<g>
	<path class="st0" d="M224.3,64.4h5.3l4.1,9.3c0.9,2.1,1.9,5.5,1.9,5.5s0.9-3.4,1.8-5.5l4-9.3h4.8l-10.5,24.3h-0.5L224.3,64.4z"/>
	<path class="st0" d="M249.7,64.4h5v24.1h-5V64.4z"/>
	<path class="st0" d="M268.6,64.2h0.4l11,24.3h-5.2l-1.1-2.7h-9.8l-1.1,2.7H258L268.6,64.2z M271.9,81.6l-1.7-4.2
		c-0.7-1.7-1.5-4.3-1.5-4.3s-0.7,2.6-1.4,4.3l-1.7,4.2H271.9z"/>
	<path class="st0" d="M281.2,84.3l4-2.4c0.8,1.4,1.5,2.5,3.2,2.5c1.6,0,2.7-0.6,2.7-3.1V64.4h5v16.9c0,5.1-3,7.5-7.4,7.5
		C284.7,88.8,282.4,86.7,281.2,84.3z"/>
	<path class="st0" d="M300.8,64.4h15.9v4.4h-11v7.6h9.7v4.2h-9.7v3.5h11.5v4.4h-16.4V64.4z"/>
	<path class="st0" d="M319.9,83.7l4-2.3c1.1,1.7,2.4,3,4.9,3c2.1,0,3.4-1,3.4-2.4c0-1.7-1.3-2.3-3.6-3.3l-1.2-0.5
		c-3.6-1.5-5.9-3.4-5.9-7.5c0-3.7,2.8-6.5,7.3-6.5c3.2,0,5.4,1.1,7,4l-3.9,2.5c-0.8-1.5-1.8-2.1-3.2-2.1c-1.5,0-2.4,0.9-2.4,2.1
		c0,1.5,0.9,2.1,3,3l1.2,0.5c4.2,1.8,6.6,3.6,6.6,7.8c0,4.5-3.5,6.9-8.2,6.9C324.3,88.8,321.4,86.6,319.9,83.7z"/>
</g>
</svg>
